<?xml version="1.0" encoding="UTF-8"?>
<!DOCTYPE svg PUBLIC "-//W3C//DTD SVG 1.0//EN" "http://www.w3.org/TR/2001/REC-SVG-20010904/DTD/svg10.dtd">
<!-- Creator: CorelDRAW X7 -->
<svg xmlns="http://www.w3.org/2000/svg" xml:space="preserve" width="48.414mm" height="49.212mm" version="1.0" style="shape-rendering:geometricPrecision; text-rendering:geometricPrecision; image-rendering:optimizeQuality; fill-rule:evenodd; clip-rule:evenodd"
viewBox="0 0 4841 4921"
 xmlns:xlink="http://www.w3.org/1999/xlink"
 enable-background="new 0 0 185 188">
 <defs>
  <style type="text/css">
   <![CDATA[
    .fil0 {fill:#4E4E4E}
    .fil9 {fill:#E6E6E5}
    .fil8 {fill:url(#id0)}
    .fil4 {fill:url(#id1)}
    .fil10 {fill:url(#id2)}
    .fil2 {fill:url(#id3)}
    .fil6 {fill:url(#id4)}
    .fil12 {fill:url(#id5)}
    .fil11 {fill:url(#id6)}
    .fil7 {fill:url(#id7)}
    .fil3 {fill:url(#id8)}
    .fil1 {fill:url(#id9)}
    .fil5 {fill:url(#id10)}
    .fil13 {fill:url(#id11)}
   ]]>
  </style>
  <radialGradient id="id0" gradientUnits="userSpaceOnUse" gradientTransform="matrix(0.857281 -0 -0 0.863924 81 295)" cx="568.77" cy="2170.17" r="503.31" fx="568.77" fy="2170.17">
   <stop offset="0" style="stop-opacity:1; stop-color:#626262"/>
   <stop offset="1" style="stop-opacity:1; stop-color:#474747"/>
  </radialGradient>
  <radialGradient id="id1" gradientUnits="userSpaceOnUse" gradientTransform="matrix(0.857281 -0 -0 0.863915 81 70)" cx="568.77" cy="513.37" r="503.31" fx="568.77" fy="513.37">
   <stop offset="0" style="stop-opacity:1; stop-color:#E14C40"/>
   <stop offset="1" style="stop-opacity:1; stop-color:#CD392D"/>
  </radialGradient>
  <radialGradient id="id2" gradientUnits="userSpaceOnUse" gradientTransform="matrix(0.882142 -0 -0 0.891841 53 499)" cx="448.25" cy="4613.92" r="295.48" fx="448.25" fy="4613.92">
   <stop offset="0" style="stop-opacity:1; stop-color:#FFCF4F"/>
   <stop offset="1" style="stop-opacity:1; stop-color:#F4C236"/>
  </radialGradient>
  <radialGradient id="id3" gradientUnits="userSpaceOnUse" gradientTransform="matrix(0.813418 -0 -0 0.827233 55 200)" cx="296.63" cy="1157.43" r="430.06" fx="296.63" fy="1157.43">
   <stop offset="0" style="stop-opacity:1; stop-color:#08A960"/>
   <stop offset="1" style="stop-opacity:1; stop-color:#07914B"/>
  </radialGradient>
  <radialGradient id="id4" gradientUnits="userSpaceOnUse" gradientTransform="matrix(0.813418 -0 -0 0.827242 55 488)" cx="296.63" cy="2824.29" r="430.06" fx="296.63" fy="2824.29">
   <stop offset="0" style="stop-opacity:1; stop-color:#A0A0A0"/>
   <stop offset="1" style="stop-opacity:1; stop-color:#7B7B7B"/>
  </radialGradient>
  <radialGradient id="id5" gradientUnits="userSpaceOnUse" gradientTransform="matrix(0.818212 -0 -0 0.830532 78 673)" cx="430.36" cy="3968.32" r="634.59" fx="430.36" fy="3968.32">
   <stop offset="0" style="stop-opacity:1; stop-color:#567FC0"/>
   <stop offset="1" style="stop-opacity:1; stop-color:#557FC0"/>
  </radialGradient>
  <radialGradient id="id6" gradientUnits="userSpaceOnUse" gradientTransform="matrix(0.81346 -0 -0 0.827233 55 774)" xlink:href="#id3" cx="295.14" cy="4482.56" r="430.06" fx="295.14" fy="4482.56">
  </radialGradient>
  <radialGradient id="id7" gradientUnits="userSpaceOnUse" gradientTransform="matrix(0.818212 -0 -0 0.830538 76 390)" cx="417.99" cy="2301.45" r="634.59" fx="417.99" fy="2301.45">
   <stop offset="0" style="stop-opacity:1; stop-color:#848484"/>
   <stop offset="1" style="stop-opacity:1; stop-color:#838383"/>
  </radialGradient>
  <radialGradient id="id8" gradientUnits="userSpaceOnUse" gradientTransform="matrix(0.818212 -0 -0 0.830538 76 108)" xlink:href="#id5" cx="418" cy="634.58" r="634.59" fx="418" fy="634.58">
  </radialGradient>
  <radialGradient id="id9" gradientUnits="userSpaceOnUse" gradientTransform="matrix(0.882142 -0 -0 0.891841 53 140)" xlink:href="#id2" cx="448.68" cy="1292" r="295.48" fx="448.68" fy="1292">
  </radialGradient>
  <radialGradient id="id10" gradientUnits="userSpaceOnUse" gradientTransform="matrix(0.882142 -0 -0 0.891841 53 319)" cx="448.68" cy="2952.96" r="295.48" fx="448.68" fy="2952.96">
   <stop offset="0" style="stop-opacity:1; stop-color:#CCCCCC"/>
   <stop offset="1" style="stop-opacity:1; stop-color:silver"/>
  </radialGradient>
  <radialGradient id="id11" gradientUnits="userSpaceOnUse" gradientTransform="matrix(0.857281 -0 -0 0.863915 83 522)" xlink:href="#id1" cx="580.05" cy="3837.03" r="503.31" fx="580.05" fy="3837.03">
  </radialGradient>
 </defs>
 <g id="Capa_x0020_1">
  <metadata id="CorelCorpID_0Corel-Layer"/>
  <g id="_406519952">
   <path class="fil0" d="M3045 449c0,71 -20,125 -58,164 -39,38 -94,57 -164,57l-136 0 0 -424 146 0c68,0 120,17 156,52 37,35 56,85 56,151zm-118 4c0,-39 -8,-68 -23,-86 -16,-19 -39,-29 -70,-29l-33 0 0 238 25 0c35,0 60,-10 76,-30 17,-21 25,-51 25,-93z"/>
   <path class="fil0" d="M3236 676c-55,0 -97,-15 -127,-44 -30,-29 -45,-70 -45,-124 0,-56 14,-98 42,-128 28,-30 67,-45 119,-45 49,0 87,13 114,39 27,26 40,63 40,112l0 50 -201 0c0,19 7,33 20,43 12,11 29,16 51,16 20,0 38,-2 55,-6 16,-3 34,-10 54,-19l0 82c-18,9 -36,15 -55,19 -19,3 -41,5 -67,5zm-7 -263c-13,0 -24,4 -33,12 -9,9 -15,22 -16,40l97 0c-1,-16 -5,-29 -14,-38 -8,-10 -20,-14 -34,-14z"/>
   <path class="fil0" d="M3493 670l-125 -329 118 0 55 195c0,1 1,2 1,5 1,2 1,5 2,8 1,3 1,7 2,10 0,4 0,7 0,10l2 0c0,-10 2,-21 5,-33l58 -195 118 0 -125 329 -111 0 0 0z"/>
   <polygon class="fil0" points="3851,670 3739,670 3739,246 3988,246 3988,338 3851,338 3851,419 3977,419 3977,511 3851,511 "/>
   <path class="fil0" d="M4172 676c-54,0 -96,-15 -126,-44 -30,-29 -45,-70 -45,-124 0,-56 13,-98 41,-128 28,-30 68,-45 120,-45 49,0 87,13 113,39 27,26 41,63 41,112l0 50 -202 0c1,19 8,33 20,43 13,11 30,16 52,16 19,0 38,-2 54,-6 17,-3 35,-10 54,-19l0 82c-17,9 -36,15 -54,19 -19,3 -42,5 -68,5zm-6 -263c-14,0 -25,4 -34,12 -9,9 -14,22 -15,40l96 0c0,-16 -5,-29 -13,-38 -9,-10 -20,-14 -34,-14z"/>
   <path class="fil0" d="M4596 569c0,35 -12,62 -36,80 -24,18 -58,27 -102,27 -25,0 -46,-1 -64,-4 -17,-3 -36,-7 -54,-14l0 -91c17,7 36,14 57,19 21,5 40,7 56,7 24,0 37,-5 37,-16 0,-6 -4,-11 -11,-16 -6,-4 -26,-13 -59,-26 -30,-13 -51,-27 -63,-43 -12,-15 -18,-35 -18,-60 0,-30 12,-54 35,-71 24,-17 57,-26 100,-26 21,0 41,3 60,8 19,4 39,11 59,20l-30 73c-15,-6 -31,-12 -48,-17 -17,-5 -30,-7 -41,-7 -18,0 -27,5 -27,14 0,5 3,10 9,14 7,4 25,12 56,24 23,10 40,19 51,28 11,9 20,20 25,32 5,13 8,27 8,45z"/>
   <path class="fil0" d="M4783 586c15,0 33,-4 54,-11l0 83c-15,6 -29,11 -43,14 -14,2 -30,4 -48,4 -38,0 -65,-9 -82,-28 -17,-19 -25,-48 -25,-86l0 -136 -40 0 0 -46 50 -36 30 -69 73 0 0 66 80 0 0 85 -80 0 0 128c0,22 10,32 31,32z"/>
   <path class="fil0" d="M1448 432l183 0 0 228c-49,17 -104,26 -164,26 -65,0 -116,-19 -151,-57 -36,-38 -54,-92 -54,-162 0,-69 20,-122 59,-160 39,-38 94,-57 164,-57 27,0 52,2 76,7 23,5 44,12 62,19l-37 90c-30,-15 -64,-22 -100,-22 -34,0 -60,11 -78,32 -18,22 -28,53 -28,94 0,39 9,70 25,90 17,21 41,32 72,32 17,0 33,-2 47,-5l0 -67 -76 0 0 -88z"/>
   <path class="fil0" d="M2042 459c0,71 -19,125 -58,164 -39,38 -94,57 -165,57l-137 0 0 -424 147 0c68,0 121,17 158,52 37,35 55,85 55,151zm-119 4c0,-39 -7,-68 -23,-87 -15,-18 -39,-28 -70,-28l-33 0 0 238 25 0c35,0 61,-10 77,-30 16,-21 24,-51 24,-93z"/>
   <path class="fil0" d="M2253 432l183 0 0 228c-50,17 -104,26 -164,26 -65,0 -116,-19 -152,-57 -35,-38 -53,-92 -53,-162 0,-69 19,-122 59,-160 39,-38 93,-57 164,-57 27,0 52,2 75,7 24,5 45,12 62,19l-36 90c-30,-15 -64,-22 -101,-22 -33,0 -59,11 -77,32 -19,22 -28,53 -28,94 0,39 9,70 25,90 17,21 41,32 72,32 17,0 32,-2 47,-5l0 -67 -76 0 0 -88z"/>
   <path class="fil1" d="M214 1587l179 0c43,0 96,-29 117,-66l152 -252c18,-37 17,-90 -3,-125l-90 -147 -355 590z"/>
   <path class="fil2" d="M407 860l-400 668c-15,33 1,59 40,59l167 0 355 -590 -162 -270c22,37 22,97 0,133z"/>
   <path class="fil3" d="M47 0c-42,0 -59,30 -37,66l649 1078c20,35 21,88 3,125l158 -262 -606 -1007 -167 0z"/>
   <path class="fil4" d="M214 0l606 1007 87 -147c22,-36 22,-96 0,-133l-397 -661c-21,-36 -74,-66 -117,-66l-179 0z"/>
   <path class="fil0" d="M3045 2116c0,71 -20,125 -58,163 -39,39 -94,58 -164,58l-136 0 0 -424 146 0c68,0 120,17 156,52 37,35 56,85 56,151zm-118 4c0,-39 -8,-68 -23,-87 -16,-18 -39,-28 -70,-28l-33 0 0 238 25 0c35,0 60,-10 76,-30 16,-21 25,-52 25,-93z"/>
   <path class="fil0" d="M3236 2343c-55,0 -97,-15 -127,-44 -30,-29 -45,-71 -45,-124 0,-56 14,-98 42,-128 28,-30 67,-45 119,-45 49,0 87,13 114,39 27,26 40,63 40,112l0 50 -201 0c0,18 7,33 20,43 12,11 29,16 51,16 20,0 38,-2 55,-6 16,-3 34,-10 54,-19l0 82c-18,9 -36,15 -55,19 -19,3 -41,5 -67,5zm-7 -264c-13,0 -24,5 -33,13 -9,9 -15,22 -16,40l97 0c-1,-16 -5,-29 -14,-38 -8,-10 -20,-15 -34,-15z"/>
   <path class="fil0" d="M3493 2337l-125 -329 118 0 55 195c0,1 1,2 1,4 1,3 1,6 2,9 1,3 1,6 2,10 0,4 0,7 0,10l2 0c0,-10 2,-21 5,-33l58 -195 118 0 -125 329 -111 0 0 0z"/>
   <polygon class="fil0" points="3851,2337 3739,2337 3739,1913 3988,1913 3988,2005 3851,2005 3851,2086 3977,2086 3977,2178 3851,2178 "/>
   <path class="fil0" d="M4172 2343c-54,0 -96,-15 -126,-44 -30,-29 -45,-71 -45,-124 0,-56 13,-98 41,-128 28,-30 68,-45 120,-45 49,0 87,13 113,39 27,26 41,63 41,112l0 50 -202 0c1,18 8,33 20,43 13,11 30,16 52,16 19,0 38,-2 54,-6 17,-3 35,-10 54,-19l0 82c-17,9 -36,15 -54,19 -19,3 -42,5 -68,5zm-6 -264c-14,0 -25,5 -34,13 -9,9 -14,22 -15,40l96 0c0,-16 -5,-29 -13,-38 -9,-10 -20,-15 -34,-15z"/>
   <path class="fil0" d="M4596 2236c0,35 -12,62 -36,80 -24,18 -58,27 -102,27 -25,0 -46,-2 -64,-4 -17,-3 -36,-8 -54,-15l0 -90c17,7 36,14 57,19 21,5 40,7 56,7 24,0 37,-5 37,-17 0,-5 -4,-11 -11,-15 -6,-5 -26,-13 -59,-27 -30,-12 -51,-26 -63,-42 -12,-16 -18,-36 -18,-60 0,-30 12,-54 35,-71 24,-17 57,-26 100,-26 21,0 41,3 60,7 19,5 39,12 59,21l-30 73c-15,-6 -31,-12 -48,-17 -17,-5 -30,-7 -41,-7 -18,0 -27,4 -27,14 0,5 3,10 9,14 7,4 25,12 56,24 23,10 40,19 51,28 11,9 20,20 25,32 5,12 8,27 8,45z"/>
   <path class="fil0" d="M4783 2253c15,0 33,-4 54,-11l0 82c-15,7 -29,12 -43,14 -14,3 -30,5 -48,5 -38,0 -65,-10 -82,-28 -17,-19 -25,-48 -25,-86l0 -136 -40 0 0 -46 50 -36 30 -69 73 0 0 66 80 0 0 85 -80 0 0 128c0,21 10,32 31,32z"/>
   <path class="fil0" d="M1448 2098l183 0 0 229c-49,17 -104,26 -164,26 -65,0 -116,-19 -151,-57 -36,-38 -54,-92 -54,-162 0,-69 20,-122 59,-160 39,-38 94,-57 164,-57 27,0 52,2 76,7 23,5 44,11 62,19l-37 90c-30,-15 -64,-22 -100,-22 -34,0 -60,10 -78,32 -18,22 -28,53 -28,94 0,39 9,69 25,90 17,21 41,31 72,31 17,0 33,-1 47,-5l0 -66 -76 0 0 -89z"/>
   <path class="fil0" d="M2042 2126c0,71 -19,125 -58,163 -39,39 -94,58 -165,58l-137 0 0 -424 147 0c68,0 121,17 158,52 37,35 55,85 55,151zm-119 4c0,-39 -7,-68 -23,-87 -15,-18 -39,-28 -70,-28l-33 0 0 238 25 0c35,0 61,-10 77,-30 16,-21 24,-52 24,-93z"/>
   <path class="fil0" d="M2253 2098l183 0 0 229c-50,17 -104,26 -164,26 -65,0 -116,-19 -152,-57 -35,-38 -53,-92 -53,-162 0,-69 19,-122 59,-160 39,-38 93,-57 164,-57 27,0 52,2 75,7 24,5 45,11 62,19l-36 90c-30,-15 -64,-22 -101,-22 -33,0 -59,10 -77,32 -19,22 -28,53 -28,94 0,39 9,69 25,90 17,21 41,31 72,31 17,0 32,-1 47,-5l0 -66 -76 0 0 -89z"/>
   <path class="fil5" d="M214 3254l179 0c43,0 96,-30 117,-66l152 -252c18,-37 17,-91 -3,-125l-90 -148 -355 591z"/>
   <path class="fil6" d="M407 2527l-400 668c-15,33 1,59 40,59l167 0 355 -591 -162 -269c22,37 22,96 0,133z"/>
   <path class="fil7" d="M47 1667c-42,0 -59,30 -37,66l649 1078c20,34 21,88 3,125l158 -263 -606 -1006 -167 0z"/>
   <path class="fil8" d="M214 1667l606 1006 87 -146c22,-36 22,-96 0,-133l-397 -661c-21,-36 -74,-66 -117,-66l-179 0z"/>
   <path class="fil9" d="M3049 3783c0,70 -20,125 -58,163 -39,39 -93,58 -163,58l-137 0 0 -424 146 0c68,0 120,17 157,52 36,35 55,85 55,151zm-118 4c0,-39 -8,-68 -23,-87 -15,-19 -39,-28 -70,-28l-33 0 0 238 26 0c34,0 59,-10 76,-31 16,-20 24,-51 24,-92z"/>
   <path class="fil9" d="M3240 4010c-55,0 -97,-15 -127,-44 -30,-29 -45,-71 -45,-124 0,-56 14,-99 42,-128 28,-30 67,-45 119,-45 49,0 87,13 114,39 27,26 40,63 40,111l0 51 -201 0c1,18 7,33 20,43 12,11 30,16 51,16 20,0 38,-2 55,-6 16,-4 34,-10 54,-19l0 81c-18,10 -36,16 -55,19 -19,4 -41,6 -67,6zm-7 -264c-13,0 -24,5 -33,13 -9,8 -14,22 -16,40l97 0c0,-16 -5,-29 -14,-38 -8,-10 -19,-15 -34,-15z"/>
   <path class="fil9" d="M3497 4004l-124 -329 117 0 55 194c1,1 1,3 1,5 1,3 2,5 2,9 1,3 1,6 2,10 0,3 0,7 0,10l3 0c0,-10 1,-21 5,-33l58 -195 117 0 -125 329 -111 0 0 0z"/>
   <polygon class="fil9" points="3855,4004 3743,4004 3743,3579 3992,3579 3992,3672 3855,3672 3855,3752 3981,3752 3981,3844 3855,3844 "/>
   <path class="fil9" d="M4176 4010c-54,0 -96,-15 -126,-44 -30,-29 -45,-71 -45,-124 0,-56 14,-99 41,-128 28,-30 68,-45 120,-45 49,0 87,13 114,39 26,26 40,63 40,111l0 51 -201 0c0,18 7,33 20,43 12,11 29,16 51,16 20,0 38,-2 55,-6 16,-4 34,-10 54,-19l0 81c-18,10 -36,16 -55,19 -19,4 -42,6 -68,6zm-6 -264c-14,0 -25,5 -34,13 -8,8 -14,22 -15,40l97 0c-1,-16 -5,-29 -14,-38 -8,-10 -20,-15 -34,-15z"/>
   <path class="fil9" d="M4600 3903c0,35 -12,62 -36,80 -24,18 -58,27 -102,27 -24,0 -45,-2 -63,-4 -18,-3 -36,-8 -55,-15l0 -91c17,8 37,15 57,20 21,5 40,7 56,7 25,0 37,-5 37,-17 0,-5 -4,-11 -10,-15 -7,-5 -27,-14 -60,-27 -30,-12 -51,-26 -63,-42 -12,-16 -18,-36 -18,-60 0,-30 12,-54 36,-71 23,-17 56,-26 99,-26 21,0 42,3 60,7 19,5 39,12 59,21l-30 73c-15,-7 -31,-12 -48,-17 -16,-5 -30,-7 -41,-7 -18,0 -27,4 -27,13 0,6 3,11 9,15 7,4 25,12 56,24 23,10 40,19 51,28 12,9 20,20 25,32 5,12 8,27 8,45z"/>
   <path class="fil9" d="M4787 3920c15,0 33,-4 54,-11l0 82c-15,7 -29,12 -43,14 -14,3 -30,5 -48,5 -38,0 -65,-10 -82,-28 -17,-19 -25,-48 -25,-87l0 -135 -39 0 0 -46 50 -36 29 -69 73 0 0 66 80 0 0 85 -80 0 0 128c0,21 11,32 31,32z"/>
   <path class="fil9" d="M1452 3765l183 0 0 229c-49,17 -104,26 -164,26 -65,0 -116,-19 -151,-57 -36,-38 -54,-92 -54,-163 0,-68 20,-121 59,-159 39,-39 94,-58 164,-58 27,0 52,3 76,8 23,5 44,11 62,19l-37 90c-30,-15 -64,-23 -100,-23 -34,0 -60,11 -78,33 -18,22 -27,53 -27,93 0,40 8,70 24,91 17,21 41,31 72,31 17,0 33,-1 47,-5l0 -66 -76 0 0 -89z"/>
   <path class="fil9" d="M2046 3793c0,70 -19,125 -58,163 -39,39 -94,58 -164,58l-138 0 0 -425 147 0c68,0 121,18 158,53 37,35 55,85 55,151zm-119 4c0,-39 -7,-68 -23,-87 -15,-19 -38,-28 -70,-28l-33 0 0 238 25 0c35,0 61,-10 77,-31 16,-20 24,-51 24,-92z"/>
   <path class="fil9" d="M2257 3765l183 0 0 229c-49,17 -104,26 -164,26 -65,0 -116,-19 -151,-57 -36,-38 -54,-92 -54,-163 0,-68 20,-121 59,-159 39,-39 94,-58 164,-58 27,0 52,3 76,8 23,5 44,11 62,19l-37 90c-30,-15 -64,-23 -100,-23 -34,0 -60,11 -78,33 -18,22 -27,53 -27,93 0,40 8,70 24,91 17,21 41,31 72,31 17,0 33,-1 47,-5l0 -66 -76 0 0 -89z"/>
   <path class="fil10" d="M218 4921l179 0c43,0 96,-30 118,-66l151 -252c18,-37 17,-91 -3,-125l-90 -148 -355 591z"/>
   <path class="fil11" d="M411 4194l-400 668c-15,33 1,59 41,59l166 0 355 -591 -162 -269c22,37 22,96 0,133z"/>
   <path class="fil12" d="M52 3334c-43,0 -60,30 -38,66l649 1078c20,34 21,88 3,125l158 -263 -606 -1006 -166 0z"/>
   <path class="fil13" d="M218 3334l606 1006 88 -146c22,-37 22,-96 0,-133l-397 -661c-22,-36 -75,-66 -118,-66l-179 0z"/>
   <path class="fil0" d="M1603 1190l11 43c-27,13 -63,19 -109,19 -61,0 -109,-18 -146,-53 -37,-36 -56,-85 -56,-146 0,-60 20,-110 59,-148 39,-39 91,-58 154,-58 41,0 73,6 99,18l-13 44c-25,-11 -53,-17 -83,-17 -49,0 -88,14 -116,43 -28,29 -43,68 -43,117 0,47 14,85 41,113 28,28 66,42 115,42 34,0 63,-6 87,-17zm281 -115l0 104c0,27 1,50 4,67l-49 0 -6 -36c-22,28 -51,42 -90,42 -26,0 -48,-8 -64,-23 -16,-16 -24,-35 -24,-57 0,-35 15,-61 44,-79 30,-18 74,-27 131,-27l0 -5c0,-20 -6,-36 -17,-47 -11,-11 -27,-17 -49,-17 -28,0 -54,8 -76,22l-13 -36c27,-17 60,-25 98,-25 36,0 64,10 83,30 18,20 28,49 28,87zm-53 75l0 -47c-46,0 -77,6 -95,17 -17,11 -26,26 -26,45 0,14 4,26 13,35 9,8 20,12 35,12 21,0 38,-6 52,-19 14,-13 21,-27 21,-43zm-32 -305l59 0 -72 84 -38 0 51 -84zm368 -14l54 0 0 341c0,32 1,56 3,74l-49 0 -4 -50c-9,18 -22,32 -40,42 -17,10 -37,14 -59,14 -36,0 -66,-13 -90,-40 -23,-27 -35,-61 -35,-102 0,-45 12,-82 37,-110 26,-28 57,-42 94,-42 19,0 37,4 53,11 15,8 28,19 36,32l0 -170zm0 294l0 -45c0,-24 -7,-43 -23,-58 -15,-14 -34,-22 -55,-22 -26,0 -48,10 -64,30 -16,19 -24,45 -24,76 0,30 8,54 23,74 15,19 36,29 64,29 20,0 39,-8 55,-23 16,-15 24,-36 24,-61zm196 121l-54 0 0 -282 54 0 0 282zm8 -367c0,9 -4,17 -10,24 -6,7 -15,10 -25,10 -10,0 -19,-3 -25,-10 -7,-7 -10,-15 -10,-24 0,-10 4,-18 10,-24 7,-7 15,-10 25,-10 10,0 18,3 25,10 6,6 10,14 10,24zm46 367l0 -31 129 -162c12,-14 25,-29 39,-46l-157 0 0 -43 224 0 0 33 -128 160c-17,21 -30,36 -38,46l169 0 0 43 -238 0zm651 0l-250 0 0 -33c88,-80 141,-132 159,-159 19,-26 28,-51 28,-75 0,-23 -7,-41 -20,-54 -13,-13 -32,-19 -57,-19 -28,0 -55,11 -83,33l-17 -38c32,-26 69,-40 111,-40 38,0 67,11 88,32 21,21 32,48 32,79 0,29 -9,58 -27,88 -19,30 -64,77 -136,141l172 0 0 45zm320 -193c0,64 -11,113 -35,147 -24,35 -57,52 -100,52 -40,0 -72,-17 -95,-51 -24,-35 -36,-82 -36,-143 0,-61 13,-109 38,-144 24,-35 57,-53 99,-53 40,0 72,17 95,51 23,33 34,80 34,141zm-212 2c0,49 7,87 21,114 14,28 33,42 57,42 25,0 45,-14 59,-41 13,-26 20,-65 20,-115 0,-48 -6,-85 -19,-112 -13,-27 -33,-40 -59,-40 -24,0 -43,14 -57,41 -14,27 -22,64 -22,111zm375 191l0 -328 -1 0 -67 35 -10 -41 84 -44 46 0 0 378 -52 0zm226 6l0 -44c3,0 7,0 12,0 45,0 81,-12 109,-36 29,-23 46,-57 52,-100 -22,27 -53,41 -92,41 -34,0 -61,-11 -83,-33 -21,-23 -32,-50 -32,-84 0,-37 13,-68 38,-95 25,-27 57,-40 96,-40 40,0 72,15 95,44 24,29 35,68 35,117 0,68 -18,123 -55,166 -37,42 -95,64 -175,64zm175 -238c0,-34 -7,-62 -21,-82 -13,-20 -33,-29 -58,-29 -22,0 -40,8 -54,25 -15,17 -22,39 -22,65 0,23 7,42 21,57 13,15 31,22 54,22 21,0 40,-6 56,-18 16,-12 24,-25 24,-40z"/>
   <path class="fil0" d="M1603 2851l11 42c-27,13 -63,20 -109,20 -61,0 -109,-18 -146,-54 -37,-36 -56,-84 -56,-145 0,-61 20,-110 59,-149 39,-38 91,-57 154,-57 41,0 73,6 99,18l-13 43c-25,-11 -53,-17 -83,-17 -49,0 -88,15 -116,43 -28,29 -43,68 -43,118 0,47 14,84 41,112 28,28 66,42 115,42 34,0 63,-5 87,-16zm281 -115l0 103c0,28 1,50 4,67l-49 0 -6 -36c-22,29 -51,43 -90,43 -26,0 -48,-8 -64,-24 -16,-16 -24,-35 -24,-57 0,-34 15,-60 44,-78 30,-18 74,-27 131,-27l0 -6c0,-20 -6,-35 -17,-47 -11,-11 -27,-16 -49,-16 -28,0 -54,7 -76,21l-13 -35c27,-17 60,-26 98,-26 36,0 64,10 83,30 18,21 28,50 28,88zm-53 74l0 -46c-46,0 -77,5 -95,16 -17,11 -26,26 -26,45 0,15 4,27 13,35 9,8 20,13 35,13 21,0 38,-7 52,-19 14,-13 21,-28 21,-44zm-32 -305l59 0 -72 85 -38 0 51 -85zm368 -13l54 0 0 340c0,32 1,57 3,74l-49 0 -4 -50c-9,18 -22,32 -40,42 -17,10 -37,15 -59,15 -36,0 -66,-14 -90,-41 -23,-26 -35,-60 -35,-102 0,-45 12,-81 37,-109 26,-29 57,-43 94,-43 19,0 37,4 53,12 15,8 28,18 36,31l0 -169zm0 293l0 -45c0,-23 -7,-43 -23,-57 -15,-15 -34,-22 -55,-22 -26,0 -48,10 -64,29 -16,20 -24,45 -24,77 0,29 8,54 23,73 15,19 36,29 64,29 20,0 39,-7 55,-23 16,-15 24,-35 24,-61zm196 121l-54 0 0 -281 54 0 0 281zm8 -367c0,10 -4,18 -10,24 -6,7 -15,10 -25,10 -10,0 -19,-3 -25,-10 -7,-6 -10,-14 -10,-24 0,-9 4,-18 10,-24 7,-7 15,-10 25,-10 10,0 18,3 25,10 6,6 10,15 10,24zm46 367l0 -31 129 -161c12,-14 25,-30 39,-46l-157 0 0 -43 224 0 0 33 -128 159c-17,21 -30,37 -38,46l169 0 0 43 -238 0zm651 0l-250 0 0 -33c88,-79 141,-132 159,-158 19,-27 28,-52 28,-75 0,-23 -7,-41 -20,-54 -13,-13 -32,-20 -57,-20 -28,0 -55,11 -83,34l-17 -38c32,-27 69,-40 111,-40 38,0 67,10 88,31 21,21 32,48 32,80 0,28 -9,57 -27,87 -19,30 -64,78 -136,142l172 0 0 44zm320 -193c0,64 -11,113 -35,148 -24,34 -57,52 -100,52 -40,0 -72,-17 -95,-52 -24,-35 -36,-82 -36,-143 0,-61 13,-109 38,-144 24,-35 57,-52 99,-52 40,0 72,16 95,50 23,33 34,81 34,141zm-212 2c0,49 7,87 21,115 14,27 33,41 57,41 25,0 45,-13 59,-40 13,-27 20,-65 20,-116 0,-47 -6,-85 -19,-112 -13,-26 -33,-40 -59,-40 -24,0 -43,14 -57,41 -14,28 -22,65 -22,111zm375 191l0 -328 -1 0 -67 35 -10 -41 84 -44 46 0 0 378 -52 0zm226 6l0 -44c3,0 7,1 12,1 45,0 81,-12 109,-36 29,-24 46,-58 52,-101 -22,28 -53,41 -92,41 -34,0 -61,-11 -83,-33 -21,-22 -32,-50 -32,-83 0,-37 13,-69 38,-96 25,-26 57,-39 96,-39 40,0 72,14 95,43 24,29 35,68 35,117 0,68 -18,123 -55,166 -37,43 -95,64 -175,64zm175 -237c0,-35 -7,-62 -21,-82 -13,-20 -33,-30 -58,-30 -22,0 -40,8 -54,26 -15,17 -22,39 -22,65 0,23 7,42 21,56 13,15 31,22 54,22 21,0 40,-6 56,-18 16,-12 24,-25 24,-39z"/>
   <path class="fil9" d="M1603 4517l11 43c-27,13 -63,20 -109,20 -61,0 -109,-18 -146,-54 -37,-36 -56,-84 -56,-145 0,-61 20,-110 59,-149 39,-38 91,-58 154,-58 41,0 73,6 99,19l-13 43c-25,-11 -53,-17 -83,-17 -49,0 -88,15 -116,43 -28,29 -43,68 -43,117 0,47 14,85 41,113 28,28 66,42 115,42 34,0 63,-5 87,-17zm281 -114l0 103c0,28 1,50 4,67l-49 0 -6 -36c-22,29 -51,43 -90,43 -26,0 -48,-8 -64,-24 -16,-16 -24,-35 -24,-57 0,-34 15,-60 44,-79 30,-18 74,-27 131,-27l0 -5c0,-20 -6,-35 -17,-47 -11,-11 -27,-16 -49,-16 -28,0 -54,7 -76,21l-13 -35c27,-17 60,-26 98,-26 36,0 64,10 83,30 18,21 28,50 28,88zm-53 74l0 -46c-46,0 -77,5 -95,16 -17,11 -26,26 -26,45 0,15 4,26 13,35 9,8 20,13 35,13 21,0 38,-7 52,-20 14,-12 21,-27 21,-43zm-32 -305l59 0 -72 85 -38 0 51 -85zm368 -13l54 0 0 340c0,32 1,56 3,74l-49 0 -4 -50c-9,18 -22,32 -40,42 -17,10 -37,15 -59,15 -36,0 -66,-14 -90,-41 -23,-27 -35,-61 -35,-102 0,-45 12,-81 37,-110 26,-28 57,-42 94,-42 19,0 37,4 53,12 15,8 28,18 36,31l0 -169zm0 293l0 -45c0,-24 -7,-43 -23,-57 -15,-15 -34,-22 -55,-22 -26,0 -48,9 -64,29 -16,20 -24,45 -24,77 0,29 8,54 23,73 15,19 36,29 64,29 20,0 39,-8 55,-23 16,-15 24,-35 24,-61zm196 121l-54 0 0 -282 54 0 0 282zm8 -367c0,10 -4,18 -10,24 -6,7 -15,10 -25,10 -10,0 -19,-3 -25,-10 -7,-6 -10,-14 -10,-24 0,-10 4,-18 10,-24 7,-7 15,-10 25,-10 10,0 18,3 25,10 6,6 10,14 10,24zm46 367l0 -31 129 -161c12,-15 25,-30 39,-46l-157 0 0 -44 224 0 0 34 -128 159c-17,21 -30,37 -38,46l169 0 0 43 -238 0zm651 0l-250 0 0 -33c88,-79 141,-132 159,-159 19,-26 28,-51 28,-74 0,-23 -7,-42 -20,-54 -13,-13 -32,-20 -57,-20 -28,0 -55,11 -83,33l-17 -37c32,-27 69,-41 111,-41 38,0 67,11 88,32 21,21 32,48 32,80 0,28 -9,57 -27,87 -19,30 -64,77 -136,141l172 0 0 45zm320 -193c0,64 -11,113 -35,148 -24,34 -57,52 -100,52 -40,0 -72,-18 -95,-52 -24,-35 -36,-82 -36,-143 0,-61 13,-109 38,-144 24,-35 57,-53 99,-53 40,0 72,17 95,51 23,33 34,80 34,141zm-212 2c0,49 7,87 21,115 14,27 33,41 57,41 25,0 45,-14 59,-40 13,-27 20,-65 20,-116 0,-48 -6,-85 -19,-112 -13,-26 -33,-40 -59,-40 -24,0 -43,14 -57,41 -14,27 -22,65 -22,111zm375 191l0 -328 -1 0 -67 35 -10 -41 84 -44 46 0 0 378 -52 0zm226 6l0 -44c3,0 7,0 12,0 45,0 81,-11 109,-35 29,-24 46,-58 52,-101 -22,27 -53,41 -92,41 -34,0 -61,-11 -83,-33 -21,-22 -32,-50 -32,-83 0,-37 13,-69 38,-96 25,-26 57,-40 96,-40 40,0 72,15 95,44 24,29 35,68 35,117 0,68 -18,123 -55,166 -37,43 -95,64 -175,64zm175 -237c0,-35 -7,-63 -21,-82 -13,-20 -33,-30 -58,-30 -22,0 -40,8 -54,25 -15,18 -22,39 -22,66 0,23 7,42 21,56 13,15 31,22 54,22 21,0 40,-6 56,-18 16,-12 24,-25 24,-39z"/>
  </g>
 </g>
</svg>
